<?xml version="1.0" standalone="no"?>
<!DOCTYPE svg PUBLIC "-//W3C//DTD SVG 20010904//EN"
 "http://www.w3.org/TR/2001/REC-SVG-20010904/DTD/svg10.dtd">
<svg version="1.0" xmlns="http://www.w3.org/2000/svg"
 width="8000.000000pt" height="1500.000000pt" viewBox="0 0 8000.000000 1500.000000"
 preserveAspectRatio="xMidYMid meet">

<g transform="translate(0.000000,1500.000000) scale(0.100000,-0.100000)"
fill="#000000" stroke="none">
<path d="M30493 14866 c-20 -9 -40 -30 -53 -56 l-21 -41 1 -1340 c0 -1027 3
-1348 13 -1376 36 -109 199 -108 235 1 10 30 12 327 13 1377 0 1238 -1 1342
-17 1375 -9 19 -27 42 -40 51 -33 21 -94 26 -131 9z"/>
<path d="M32633 14849 c-17 -5 -46 -26 -63 -47 -29 -35 -37 -51 -90 -169 -28
-62 -139 -175 -215 -218 -27 -15 -73 -43 -102 -62 -36 -24 -85 -43 -160 -62
-59 -15 -117 -32 -128 -38 -20 -10 -134 -37 -288 -69 -91 -19 -133 -48 -143
-99 -8 -45 19 -100 57 -115 34 -14 141 -7 217 15 26 7 67 16 92 20 137 20 279
59 345 95 38 21 101 48 138 60 37 12 87 36 110 54 23 17 63 44 88 58 25 15 64
47 87 72 74 81 104 82 177 5 21 -22 59 -51 84 -64 26 -13 66 -39 89 -58 22
-19 76 -47 119 -62 43 -16 105 -43 138 -60 71 -38 166 -65 375 -105 85 -16
177 -37 203 -46 86 -29 137 14 137 116 0 44 -5 56 -29 81 -17 17 -40 29 -54
29 -40 0 -213 36 -312 65 -49 15 -134 39 -188 55 -58 16 -115 40 -140 57 -23
17 -67 43 -97 58 -56 28 -189 155 -215 204 -7 15 -16 48 -20 74 -8 50 -48 116
-87 141 -31 20 -87 27 -125 15z"/>
<path d="M35636 14814 c-22 -22 -26 -36 -26 -80 0 -45 5 -59 28 -85 l28 -31
921 1 921 2 27 -23 c49 -42 55 -94 44 -394 -10 -285 -7 -321 34 -349 26 -18
103 -19 137 -2 35 18 67 70 79 130 6 29 12 213 14 410 4 383 3 391 -46 429
-21 16 -93 18 -1078 18 l-1056 0 -27 -26z"/>
<path d="M38795 14830 c-11 -4 -31 -19 -44 -33 l-23 -26 0 -667 1 -667 26 -26
25 -26 1079 -3 1079 -2 26 31 26 31 -2 668 -3 669 -29 30 c-27 29 -35 31 -97
31 -118 0 -145 -44 -134 -215 9 -125 -4 -191 -44 -229 l-28 -26 -782 0 c-868
0 -818 -4 -863 67 -22 36 -23 46 -20 179 3 132 2 142 -19 168 -38 48 -119 69
-174 46z m1885 -695 c41 -21 48 -60 50 -257 1 -149 -2 -172 -19 -207 -11 -21
-28 -42 -38 -46 -10 -3 -375 -6 -811 -6 -876 0 -821 -4 -862 63 -17 28 -18 47
-13 217 3 113 10 192 17 200 6 8 25 22 41 33 28 17 71 18 818 18 682 0 792 -2
817 -15z"/>
<path d="M42859 14826 c-50 -29 -51 -41 -51 -470 1 -377 2 -401 20 -425 38
-52 19 -51 1110 -48 950 2 1020 3 1045 19 14 10 32 28 38 40 17 31 16 806 -1
837 -31 58 -150 83 -202 41 -35 -27 -58 -80 -58 -133 0 -59 -7 -75 -40 -92
-23 -12 -151 -15 -798 -15 -674 -1 -774 1 -800 14 -35 18 -42 33 -42 92 0 53
-19 101 -49 129 -29 25 -134 32 -172 11z m1846 -456 c35 -13 56 -51 62 -113 7
-65 -8 -115 -43 -148 l-26 -24 -772 -3 -772 -3 -28 22 c-74 58 -75 214 -1 264
30 20 40 20 793 17 425 -2 774 -7 787 -12z"/>
<path d="M28445 14821 c-61 -25 -82 -120 -39 -178 43 -59 46 -60 524 -53 492
7 487 8 527 -65 22 -40 22 -42 13 -320 -10 -298 -14 -368 -31 -510 -12 -97
-43 -217 -64 -251 -7 -11 -28 -70 -46 -130 -48 -164 -194 -399 -335 -539 -87
-86 -168 -151 -222 -179 -28 -14 -85 -48 -127 -75 -44 -29 -92 -52 -117 -56
-58 -10 -115 -43 -137 -80 -46 -74 -34 -152 26 -180 53 -25 99 -15 231 53 64
33 134 65 154 71 20 7 54 26 75 43 21 16 67 49 103 73 83 55 295 264 384 379
38 49 79 114 91 145 12 32 37 80 56 107 38 55 57 103 82 207 9 38 29 96 43
130 29 71 51 158 65 267 17 136 39 601 39 837 l0 233 -29 32 c-29 32 -32 33
-133 39 -151 10 -1110 9 -1133 0z"/>
<path d="M45975 14815 c-60 -16 -85 -44 -85 -96 0 -53 44 -103 104 -118 32 -8
313 -11 938 -11 689 0 899 -3 917 -13 14 -6 33 -27 44 -44 16 -29 19 -57 21
-225 1 -106 -1 -203 -5 -215 -5 -12 -23 -30 -41 -40 -31 -17 -92 -18 -968 -23
-904 -5 -936 -6 -967 -24 -18 -11 -36 -31 -40 -45 -13 -43 0 -873 14 -897 7
-12 29 -30 50 -40 35 -17 73 -19 459 -24 455 -5 440 -3 470 -61 11 -22 14 -81
14 -284 0 -269 -3 -289 -48 -312 -9 -4 -252 -10 -539 -13 -508 -5 -522 -6
-549 -26 -34 -25 -45 -61 -34 -110 13 -58 46 -84 121 -94 96 -14 2394 -13
2420 1 27 14 59 84 59 131 0 25 -8 46 -26 67 l-26 31 -514 0 c-548 0 -568 2
-593 48 -7 14 -11 115 -11 287 l0 267 34 34 34 34 451 0 c349 -1 455 2 471 12
63 40 67 185 6 218 -17 9 -260 12 -967 13 -840 2 -948 4 -979 18 -64 29 -64
30 -61 248 3 228 8 245 82 273 40 15 121 17 942 17 765 1 903 3 933 16 64 26
65 34 66 517 l1 429 -26 27 c-25 25 -35 27 -149 33 -68 4 -539 7 -1048 8 -739
0 -935 -3 -975 -14z"/>
<path d="M49038 14815 c-36 -20 -48 -44 -48 -97 0 -52 30 -105 67 -119 17 -6
341 -9 928 -9 627 1 914 -2 943 -9 38 -11 90 -57 93 -84 1 -7 1 -174 0 -372
-1 -417 -16 -706 -45 -920 -41 -293 -40 -280 -20 -321 25 -52 56 -66 124 -59
100 11 124 46 134 198 4 54 12 124 17 155 27 165 48 611 50 1089 3 450 1 494
-14 511 -42 46 -30 46 -1147 49 -926 2 -1058 1 -1082 -12z"/>
<path d="M36410 14173 c-17 -14 -36 -38 -42 -52 -6 -15 -10 -108 -9 -226 2
-190 1 -202 -21 -245 -35 -67 -45 -69 -449 -68 -372 0 -377 0 -425 -54 -50
-55 -34 -124 35 -151 35 -15 166 -16 1225 -17 807 0 1202 4 1236 11 124 26
122 157 -3 194 -45 14 -135 15 -646 14 -575 -1 -594 0 -620 19 -14 10 -35 34
-46 53 -19 32 -20 49 -17 235 3 190 2 204 -18 244 -37 72 -139 95 -200 43z"/>
<path d="M31461 13714 c-67 -29 -101 -117 -67 -170 36 -54 46 -55 569 -54 470
1 528 -2 563 -31 26 -21 35 -83 24 -156 -22 -140 -36 -144 -470 -142 -480 1
-445 3 -480 -28 -19 -18 -33 -41 -36 -64 -5 -31 -1 -42 24 -70 l30 -34 917 -1
c892 -2 918 -3 944 -21 69 -52 61 -220 -13 -268 -21 -14 -125 -16 -926 -15
l-901 0 -29 -28 c-15 -16 -33 -46 -39 -68 -15 -54 -15 -535 0 -568 7 -14 28
-33 48 -43 34 -16 106 -17 1091 -18 1125 0 1111 -1 1145 48 36 51 0 141 -65
164 -26 9 -270 12 -955 13 -709 0 -926 3 -944 13 -42 21 -64 62 -69 125 -5 70
15 118 56 133 18 7 271 10 747 9 396 0 806 2 910 6 l190 7 33 33 32 32 0 262
c0 240 -2 265 -20 308 -34 79 -16 76 -455 73 -439 -2 -443 -2 -478 70 -26 55
-33 158 -13 197 33 65 26 64 580 65 545 2 553 3 581 58 29 54 9 116 -48 146
-36 20 -66 21 -1616 25 -600 2 -841 0 -860 -8z"/>
<path d="M43875 13620 c-875 -4 -1195 -8 -1210 -17 -36 -20 -57 -51 -62 -90
-7 -55 10 -91 54 -111 35 -16 133 -17 1238 -20 836 -2 1211 0 1237 8 49 14 78
52 78 102 0 73 -42 120 -115 130 -16 2 -565 1 -1220 -2z"/>
<path d="M42858 13104 c-49 -26 -62 -82 -34 -149 30 -71 -36 -66 968 -65 889
1 905 0 930 -19 37 -29 51 -72 46 -137 -4 -43 -11 -61 -32 -82 l-26 -27 -919
-5 c-1002 -5 -936 -1 -968 -63 -13 -25 -15 -75 -14 -295 0 -289 0 -285 62
-317 36 -19 2078 -22 2140 -3 22 6 49 23 61 37 36 47 8 128 -56 163 -13 7
-321 10 -937 9 -1016 -2 -960 -6 -993 63 -33 70 -10 176 44 203 20 10 218 13
917 12 725 -1 897 2 920 13 15 7 37 29 48 49 19 34 20 52 19 299 l-2 262 -26
27 c-26 25 -31 26 -189 33 -89 3 -560 6 -1047 7 -763 0 -889 -2 -912 -15z"/>
<path d="M36580 12983 c-224 -5 -437 -37 -520 -78 -14 -6 -71 -25 -127 -40
-96 -26 -107 -32 -189 -101 -110 -91 -122 -107 -145 -200 -29 -118 -21 -246
22 -327 32 -59 137 -153 217 -192 42 -20 89 -46 103 -56 136 -97 993 -125
1449 -48 77 13 325 133 378 183 44 40 106 147 126 215 25 85 21 139 -20 241
-33 82 -43 97 -108 156 -92 84 -130 106 -246 139 -52 14 -111 33 -130 40 -128
52 -424 77 -810 68z m420 -248 c339 -23 344 -24 422 -62 95 -45 161 -102 192
-165 44 -88 32 -135 -57 -233 l-52 -57 -130 -35 c-71 -19 -146 -38 -165 -43
-19 -5 -132 -17 -253 -26 -189 -15 -241 -16 -390 -5 -259 18 -291 24 -525 93
-119 36 -192 124 -192 233 0 98 33 140 175 223 82 48 123 56 410 76 259 18
317 18 565 1z"/>
<path d="M39825 12951 c-1052 -5 -1163 -8 -1190 -22 -47 -26 -67 -54 -72 -103
-5 -39 -2 -48 21 -69 49 -46 88 -49 581 -46 405 2 464 0 491 -14 57 -30 56
-25 55 -309 -1 -145 -4 -288 -7 -319 -6 -54 -5 -58 28 -95 32 -34 41 -38 95
-42 43 -3 69 0 91 12 64 33 64 32 61 385 -4 352 -6 341 61 369 29 12 116 14
522 13 526 -2 525 -2 562 51 49 69 -15 185 -105 191 -19 2 -556 1 -1194 -2z"/>
<path d="M48879 12301 c-33 -34 -39 -88 -15 -146 30 -71 -68 -66 1252 -65 654
1 1209 5 1234 10 63 12 100 55 100 116 0 25 -5 54 -11 66 -26 49 9 48 -1304
48 l-1227 0 -29 -29z"/>
<path d="M24490 9420 c-694 -4 -769 -7 -803 -22 -73 -33 -67 291 -67 -3545 0
-2355 3 -3470 10 -3495 10 -36 42 -66 84 -82 14 -5 1476 -11 1602 -6 20 0 53
40 64 77 7 26 10 350 10 978 0 923 0 941 20 973 11 18 32 37 48 43 35 14 161
5 198 -14 39 -20 90 -76 99 -107 19 -66 61 -159 89 -200 18 -25 47 -87 65
-137 18 -51 48 -112 66 -135 17 -24 46 -83 64 -133 18 -49 47 -112 66 -140 19
-27 50 -92 69 -144 19 -51 44 -103 54 -115 26 -28 44 -65 76 -156 15 -41 43
-98 62 -125 19 -28 47 -87 63 -133 16 -45 47 -109 69 -142 22 -33 52 -95 66
-138 29 -86 93 -184 150 -227 l35 -27 848 1 c764 2 849 3 865 18 25 23 23 41
-18 135 -19 46 -43 101 -52 123 -9 22 -37 69 -61 104 -24 36 -52 90 -62 120
-11 31 -42 90 -69 131 -28 42 -57 98 -65 125 -8 28 -39 87 -69 133 -30 45 -59
102 -65 126 -6 23 -19 53 -29 67 -38 49 -90 146 -107 196 -9 29 -21 55 -26 58
-17 11 -89 141 -102 185 -8 25 -33 74 -57 108 -23 35 -56 97 -72 139 -16 42
-42 92 -58 112 -26 33 -90 167 -90 189 0 5 -16 29 -35 53 -19 24 -51 84 -72
134 -20 49 -52 110 -70 133 -18 24 -41 68 -53 98 -11 30 -29 73 -40 94 -23 46
-26 100 -6 138 8 16 24 59 37 97 12 39 34 86 49 105 37 47 65 104 84 171 9 31
28 71 42 90 36 48 80 137 89 179 4 19 22 58 40 86 46 71 81 143 90 184 4 19
18 53 32 74 56 86 83 137 93 178 7 24 36 85 67 136 30 51 61 115 68 141 7 27
38 91 69 143 31 51 56 100 56 108 0 20 49 120 94 194 20 33 36 67 36 75 0 25
53 132 99 199 62 90 68 164 16 198 -22 15 -106 16 -862 15 -924 -2 -882 1
-922 -65 -11 -17 -25 -53 -31 -80 -11 -50 -46 -125 -87 -187 -14 -21 -29 -57
-34 -81 -14 -64 -49 -148 -80 -191 -16 -21 -42 -84 -59 -140 -18 -55 -42 -114
-55 -131 -27 -36 -69 -135 -80 -186 -4 -19 -24 -66 -45 -105 -20 -38 -44 -83
-53 -100 -8 -16 -27 -67 -41 -113 -14 -46 -40 -103 -57 -128 -16 -24 -46 -93
-65 -153 -38 -121 -69 -160 -141 -180 -47 -14 -153 -14 -187 -1 -61 23 -56
-122 -56 1929 0 2026 3 1919 -52 1955 -13 9 -37 17 -54 19 -16 1 -373 0 -794
-3z"/>
<path d="M32651 9409 c-40 -24 -46 -36 -85 -154 -20 -60 -43 -123 -51 -140
-19 -42 -41 -135 -55 -229 -13 -85 -20 -109 -72 -256 -33 -90 -41 -123 -68
-280 -7 -35 -23 -94 -37 -130 -45 -120 -64 -184 -83 -295 -10 -60 -30 -144
-45 -185 -59 -170 -67 -200 -86 -305 -10 -60 -35 -155 -55 -210 -42 -118 -74
-230 -74 -265 0 -37 -43 -192 -79 -290 -17 -47 -40 -134 -51 -195 -23 -127
-37 -178 -80 -295 -17 -47 -40 -134 -51 -195 -20 -111 -57 -243 -83 -293 -13
-27 -29 -93 -65 -272 -10 -52 -34 -140 -53 -195 -19 -55 -47 -139 -62 -187
-29 -94 -54 -125 -87 -107 -25 13 -38 65 -49 199 -13 157 -28 248 -57 360 -40
151 -60 249 -67 330 -10 107 -33 236 -61 343 -35 129 -62 260 -69 337 -14 143
-25 199 -89 455 -25 99 -35 159 -58 344 -6 51 -29 164 -51 250 -46 180 -54
221 -68 351 -13 119 -34 226 -70 361 -30 109 -47 205 -76 419 -9 69 -22 143
-29 165 -27 85 -65 255 -80 360 -19 127 -32 163 -70 193 l-28 22 -871 0 c-571
0 -884 -4 -908 -10 -70 -20 -74 -73 -18 -240 18 -52 41 -144 51 -205 18 -111
36 -179 84 -315 14 -41 35 -130 46 -198 11 -69 39 -181 65 -258 25 -75 56
-195 68 -268 13 -72 42 -187 65 -255 23 -68 53 -183 66 -255 13 -72 42 -187
65 -256 23 -69 53 -183 65 -255 13 -71 37 -170 55 -220 41 -119 56 -177 80
-315 11 -63 36 -160 55 -215 39 -109 56 -180 80 -325 9 -52 30 -133 47 -180
44 -125 56 -172 79 -304 18 -106 56 -242 80 -288 9 -17 40 -160 58 -271 6 -37
28 -113 47 -170 37 -106 63 -210 83 -336 6 -40 30 -126 52 -190 45 -127 53
-162 74 -297 8 -50 36 -158 63 -240 27 -82 55 -187 61 -234 14 -100 38 -193
80 -310 17 -47 40 -139 51 -205 23 -139 33 -176 93 -346 52 -148 61 -165 89
-180 15 -8 233 -11 797 -10 845 2 805 -1 834 59 8 15 24 68 36 117 12 50 40
139 62 199 22 60 46 150 55 200 16 100 43 215 54 231 18 26 71 210 85 298 9
53 27 130 41 170 58 167 72 218 88 316 10 57 33 147 53 200 40 111 63 199 87
327 9 51 34 140 56 199 22 59 47 148 56 199 23 124 47 215 84 316 18 47 42
141 55 210 13 69 35 159 50 200 52 149 65 197 89 320 13 69 38 163 55 210 33
86 59 188 81 315 7 39 32 123 56 187 23 64 50 161 58 215 32 195 82 325 143
373 67 53 95 2 128 -233 9 -67 28 -148 46 -198 35 -96 70 -226 93 -349 9 -47
32 -128 52 -180 20 -52 44 -138 55 -190 32 -163 51 -244 65 -272 27 -53 62
-175 79 -278 10 -58 28 -136 42 -175 62 -181 73 -220 89 -312 15 -91 52 -220
87 -303 9 -20 29 -106 46 -192 16 -86 34 -166 40 -177 26 -48 72 -206 91 -313
11 -65 32 -148 45 -185 45 -121 73 -216 85 -298 12 -80 51 -219 71 -257 17
-32 46 -145 64 -250 9 -53 32 -141 52 -195 47 -129 61 -183 74 -272 13 -89 48
-173 83 -196 14 -9 43 -21 63 -26 27 -6 1285 -14 1495 -9 29 0 88 60 118 120
34 67 55 144 80 295 11 60 33 151 50 200 48 140 58 181 81 310 11 66 34 158
50 205 45 128 57 174 79 305 11 66 40 179 64 250 25 72 49 157 55 190 5 33 16
92 22 130 7 39 31 126 55 195 24 69 49 159 55 200 21 131 45 232 82 332 19 54
40 130 47 170 18 112 49 258 59 276 24 46 64 187 81 291 24 139 56 257 96 349
8 18 23 88 34 155 20 126 37 190 88 337 16 47 35 123 42 170 18 119 36 189 77
305 19 55 45 161 58 236 13 75 35 170 50 210 41 119 73 238 85 324 12 85 31
156 80 300 17 49 39 141 50 205 20 114 49 231 68 266 17 33 50 165 66 269 17
104 40 186 75 268 27 62 46 175 37 221 -14 71 42 67 -904 66 -916 -1 -921 -1
-969 -52 -32 -35 -60 -138 -78 -293 -16 -134 -33 -220 -88 -440 -14 -55 -35
-174 -46 -265 -12 -91 -30 -199 -41 -240 -52 -199 -70 -286 -85 -410 -17 -142
-37 -243 -78 -400 -29 -112 -41 -181 -63 -354 -9 -72 -29 -180 -45 -240 -44
-168 -66 -278 -83 -421 -8 -72 -36 -211 -61 -310 -27 -109 -53 -245 -66 -345
-11 -91 -32 -210 -46 -265 -25 -102 -49 -206 -60 -260 -21 -112 -63 -205 -91
-205 -32 0 -54 72 -81 265 -11 77 -43 190 -74 265 -9 19 -25 87 -36 150 -24
132 -37 179 -84 310 -19 53 -42 140 -52 195 -17 106 -41 191 -73 265 -21 50
-44 141 -67 270 -9 47 -31 128 -51 180 -40 109 -56 168 -78 296 -9 51 -35 146
-60 212 -26 72 -52 167 -65 240 -11 67 -33 152 -47 189 -47 126 -65 188 -84
298 -10 61 -33 148 -50 195 -32 84 -59 187 -98 365 -11 50 -34 128 -52 175
-17 47 -38 119 -46 160 -41 205 -59 270 -95 342 -28 56 -50 85 -77 103 l-37
24 -714 3 c-638 3 -717 1 -740 -13z"/>
<path d="M49181 9420 c-30 -7 -60 -36 -67 -64 -9 -39 22 -129 71 -200 24 -35
49 -84 55 -108 12 -45 57 -131 96 -183 12 -16 29 -54 38 -84 8 -29 39 -92 67
-139 29 -48 58 -106 65 -130 8 -24 38 -85 68 -135 30 -51 58 -105 61 -122 8
-33 67 -145 97 -184 10 -13 25 -46 33 -73 14 -50 62 -142 97 -187 10 -13 25
-48 34 -77 8 -29 39 -93 69 -142 29 -49 59 -108 65 -132 6 -24 30 -73 52 -109
54 -87 78 -132 78 -148 0 -19 57 -132 87 -171 13 -17 33 -59 44 -92 19 -59 81
-174 99 -185 5 -3 17 -32 26 -63 17 -61 74 -171 98 -191 8 -7 24 -42 36 -79
22 -66 55 -131 96 -187 12 -16 29 -54 38 -83 8 -29 40 -95 70 -145 30 -51 58
-105 62 -122 9 -39 35 -90 83 -164 21 -33 43 -79 49 -103 6 -24 29 -72 51
-108 48 -77 64 -109 85 -171 9 -25 32 -70 50 -100 19 -30 43 -67 53 -84 17
-28 18 -101 23 -1420 5 -1347 6 -1391 24 -1422 11 -17 29 -35 40 -40 12 -4
424 -6 917 -3 988 6 918 0 946 69 12 29 14 232 13 1355 -1 1161 1 1330 15
1395 16 76 62 180 96 216 10 12 27 46 38 76 23 69 64 150 102 202 16 22 29 46
29 54 0 25 42 116 81 175 21 32 43 75 49 95 21 64 66 156 92 188 13 17 37 65
52 108 16 42 48 107 72 143 23 37 46 81 50 98 8 40 47 116 89 178 18 26 37 63
40 80 9 42 61 145 90 180 13 15 31 51 40 80 22 67 60 143 92 186 13 17 32 56
42 85 23 67 56 133 88 175 13 17 32 56 42 85 24 69 68 155 97 190 13 16 24 33
24 39 0 25 64 166 94 207 18 25 39 64 46 86 22 68 60 146 89 183 15 21 41 72
56 115 15 43 43 101 63 129 19 29 50 90 68 137 19 47 50 109 69 136 19 28 43
76 54 106 24 70 65 152 85 168 8 7 27 45 42 84 14 40 47 107 72 150 56 99 61
147 18 184 -26 22 -36 24 -74 19 -25 -3 -431 -6 -903 -6 l-858 0 -34 -30 c-19
-17 -39 -47 -46 -71 -7 -23 -23 -58 -35 -78 -40 -66 -84 -165 -111 -253 -15
-48 -40 -105 -57 -128 -17 -23 -43 -82 -59 -138 -16 -53 -40 -113 -54 -133
-29 -45 -70 -141 -80 -189 -4 -19 -31 -82 -60 -140 -29 -58 -63 -139 -75 -180
-12 -41 -39 -104 -60 -140 -21 -36 -51 -105 -66 -155 -15 -49 -36 -103 -47
-119 -28 -39 -87 -177 -87 -201 0 -24 -62 -157 -89 -192 -11 -13 -22 -38 -26
-56 -13 -66 -47 -157 -72 -194 -24 -36 -73 -169 -73 -200 0 -26 -29 -71 -50
-78 -27 -9 -68 18 -81 53 -5 15 -34 74 -63 132 -30 58 -61 133 -70 167 -16 64
-57 155 -83 185 -8 9 -28 60 -44 114 -16 53 -38 111 -49 128 -34 52 -71 137
-86 197 -8 32 -37 99 -64 149 -28 50 -55 111 -60 135 -15 66 -48 146 -77 183
-14 19 -40 83 -58 142 -18 59 -44 123 -57 142 -27 35 -71 141 -83 197 -4 19
-23 64 -43 100 -19 36 -43 82 -53 101 -11 19 -19 42 -19 52 0 29 -46 147 -73
186 -14 20 -42 82 -62 137 -65 180 -26 169 -615 173 -261 1 -654 3 -872 5
-218 1 -406 0 -417 -3z"/>
<path d="M8638 9413 l-38 -4 0 -3569 0 -3568 51 -4 c28 -1 448 -1 934 2 864 5
883 5 905 25 12 11 27 29 33 40 9 15 13 317 17 1135 5 1042 6 1117 23 1147 35
65 12 63 695 63 340 -1 625 1 633 4 8 3 88 12 179 21 244 23 358 42 441 74 41
16 92 36 114 44 22 8 80 25 128 38 61 15 100 32 130 55 23 18 78 47 122 65 44
17 100 48 125 69 25 20 61 46 82 56 73 38 295 250 380 364 23 30 56 71 73 91
18 20 38 54 45 75 7 22 37 75 66 120 30 45 60 104 68 135 17 64 46 140 80 206
24 48 41 120 72 313 9 58 20 125 25 150 23 124 39 323 39 487 0 191 -13 327
-54 548 -13 72 -30 168 -37 215 -6 46 -23 109 -36 140 -13 30 -35 80 -48 110
-13 30 -32 81 -41 113 -9 32 -32 81 -50 110 -19 29 -48 81 -65 117 -17 36 -50
88 -73 115 -24 28 -57 70 -75 95 -43 61 -234 253 -296 298 -27 19 -73 55 -102
79 -29 24 -78 55 -110 69 -31 14 -73 38 -93 53 -49 39 -86 57 -156 75 -34 9
-105 36 -160 62 -71 32 -124 49 -189 60 -49 8 -137 24 -195 35 -398 80 -370
79 -2105 77 -825 -1 -1517 -3 -1537 -5z m2964 -1551 c41 -7 87 -28 163 -74
140 -82 203 -146 257 -257 23 -47 50 -98 60 -112 36 -53 50 -162 51 -379 1
-167 -3 -218 -17 -275 -24 -91 -115 -280 -158 -326 -80 -86 -140 -132 -200
-155 -35 -12 -101 -37 -147 -54 -114 -42 -257 -52 -673 -48 l-326 3 -27 25
c-15 14 -31 35 -36 47 -4 12 -9 367 -9 789 l-2 766 24 25 c13 14 32 29 43 34
26 12 923 3 997 -9z"/>
<path d="M16730 7484 c-355 -12 -427 -22 -660 -89 -63 -18 -137 -36 -163 -40
-90 -12 -152 -33 -232 -78 -44 -25 -104 -52 -133 -61 -30 -8 -83 -37 -120 -65
-37 -27 -94 -65 -127 -84 -33 -19 -69 -45 -80 -57 -11 -13 -43 -40 -72 -61
-49 -37 -174 -175 -219 -242 -113 -171 -149 -234 -164 -290 -19 -66 -48 -141
-75 -194 -22 -43 -42 -157 -50 -284 -8 -116 3 -156 48 -182 17 -10 185 -11
822 -7 750 5 803 6 842 24 50 21 80 64 88 126 9 64 45 170 67 202 11 16 40 40
66 54 26 15 63 37 83 50 20 12 69 33 109 45 60 18 89 21 169 17 91 -5 101 -7
186 -52 101 -53 160 -108 217 -205 32 -55 37 -74 45 -159 4 -53 8 -302 8 -552
0 -492 -2 -514 -52 -526 -33 -9 -73 31 -96 94 -14 41 -36 67 -121 145 -57 52
-114 98 -127 102 -13 5 -59 32 -101 61 -43 29 -97 58 -121 65 -83 23 -173 52
-227 74 -100 41 -233 57 -480 58 -266 0 -377 -13 -510 -61 -52 -18 -136 -44
-187 -57 -96 -25 -120 -34 -168 -70 -16 -13 -63 -39 -104 -60 -40 -20 -94 -55
-120 -79 -25 -23 -65 -54 -87 -68 -23 -15 -62 -50 -85 -79 -24 -28 -63 -73
-86 -100 -23 -26 -61 -81 -84 -121 -23 -40 -58 -98 -78 -129 -25 -38 -44 -85
-60 -150 -13 -52 -32 -111 -42 -131 -36 -72 -58 -181 -69 -347 -17 -255 2
-479 52 -616 28 -78 40 -115 76 -240 9 -32 32 -79 51 -104 18 -25 44 -69 57
-97 13 -29 45 -77 71 -107 26 -30 76 -85 109 -123 34 -38 89 -89 123 -114 34
-25 87 -66 118 -93 38 -32 75 -53 112 -63 31 -9 93 -38 137 -65 74 -43 93 -50
203 -69 66 -11 131 -24 143 -29 27 -9 130 -26 248 -41 131 -16 302 -12 415 9
328 62 423 88 492 134 26 18 69 41 95 51 48 18 69 32 186 128 87 71 141 133
189 214 41 71 71 88 103 59 27 -24 50 -78 50 -117 0 -83 98 -323 145 -354 22
-14 106 -16 846 -15 638 1 827 4 848 14 37 17 37 45 2 178 -51 196 -54 273
-61 1849 -6 1243 -9 1459 -23 1545 -30 190 -38 238 -42 246 -3 4 -16 60 -30
124 -14 65 -34 130 -44 144 -26 36 -111 202 -111 216 0 6 -15 29 -33 51 -18
21 -48 59 -65 84 -76 109 -324 339 -401 372 -24 10 -60 33 -79 50 -40 34 -109
67 -193 92 -31 8 -62 22 -68 30 -22 27 -138 70 -261 97 -69 15 -156 37 -195
49 -130 41 -179 50 -320 59 -171 12 -466 19 -595 15z m202 -3229 c138 -27 249
-63 280 -91 11 -11 49 -57 84 -104 78 -103 87 -139 82 -323 -3 -117 -6 -138
-29 -187 -34 -73 -171 -213 -235 -242 -58 -25 -296 -51 -394 -43 -139 13 -254
27 -276 36 -34 12 -196 146 -216 177 -21 34 -54 167 -62 252 -7 72 21 235 50
291 23 44 143 162 179 176 109 40 289 79 377 82 20 0 92 -10 160 -24z"/>
<path d="M22725 7479 c-154 -9 -257 -32 -315 -68 -25 -16 -83 -44 -129 -61
-46 -18 -100 -47 -120 -65 -20 -18 -60 -51 -89 -73 -30 -22 -71 -63 -92 -91
-22 -28 -54 -69 -72 -90 -18 -22 -39 -56 -47 -78 -40 -111 -72 -163 -118 -190
-33 -19 -51 -39 -65 -70 -10 -24 -24 -43 -30 -43 -7 0 -9 98 -7 319 4 307 3
320 -16 341 -44 50 -28 49 -890 50 -768 1 -808 1 -827 -17 -12 -10 -26 -31
-32 -48 -8 -22 -10 -698 -6 -2490 5 -2298 6 -2462 22 -2491 10 -17 25 -35 35
-38 32 -13 1596 -8 1629 4 43 17 63 39 75 83 7 28 10 373 10 1111 -2 1138 2
1271 45 1521 41 244 46 264 74 309 15 23 45 81 67 127 41 87 154 234 229 297
126 106 215 161 304 186 30 8 93 29 140 46 114 41 258 60 473 60 194 0 230 7
260 53 15 24 18 75 22 504 3 263 7 549 10 637 6 231 -5 248 -177 266 -103 11
-185 11 -363 -1z"/>
<path d="M40660 7480 c-253 -11 -377 -33 -525 -90 -27 -11 -94 -29 -149 -40
-94 -20 -159 -46 -236 -95 -19 -13 -60 -30 -90 -39 -36 -10 -82 -35 -130 -71
-40 -31 -90 -65 -109 -75 -20 -10 -47 -30 -61 -45 -14 -16 -51 -44 -82 -65
-61 -38 -212 -193 -265 -270 -17 -25 -43 -58 -57 -75 -15 -16 -44 -62 -66
-101 -21 -39 -55 -92 -75 -119 -20 -26 -47 -81 -61 -121 -26 -80 -67 -169 -84
-179 -11 -7 -26 -58 -51 -181 -10 -49 -31 -130 -48 -180 -64 -193 -79 -327
-88 -764 -6 -334 6 -646 33 -826 8 -56 30 -151 50 -210 19 -60 43 -152 54
-205 18 -95 43 -162 100 -273 16 -32 30 -65 30 -73 0 -20 55 -125 83 -159 13
-16 36 -56 51 -89 15 -33 42 -76 60 -95 18 -19 50 -57 70 -85 53 -72 259 -277
323 -322 30 -21 77 -57 103 -79 26 -23 70 -50 96 -60 27 -10 78 -37 113 -61
35 -23 82 -49 105 -56 23 -8 79 -26 126 -42 47 -15 103 -38 125 -50 39 -23
147 -48 255 -60 30 -3 89 -12 130 -20 260 -49 384 -59 649 -52 179 4 257 11
376 31 83 15 209 35 280 46 136 20 224 45 280 80 18 11 78 33 133 48 68 20
112 39 140 60 22 18 75 49 118 69 44 20 100 55 127 77 26 22 67 51 91 65 88
52 316 289 376 392 18 30 42 65 55 79 13 14 44 68 70 120 26 52 59 110 72 128
24 32 73 161 73 192 0 9 12 39 26 66 48 90 65 148 95 324 16 96 34 189 39 205
5 17 16 68 24 115 66 379 56 924 -24 1265 -10 45 -26 129 -35 186 -24 161 -34
197 -80 299 -24 53 -51 125 -60 160 -16 61 -61 155 -92 191 -7 9 -24 42 -37
75 -66 167 -456 588 -625 673 -31 16 -66 40 -79 54 -23 24 -45 35 -157 78 -33
13 -83 38 -111 57 -37 24 -82 40 -155 57 -57 14 -146 38 -197 55 -123 40 -205
57 -337 69 -157 15 -560 21 -765 11z m557 -1328 c92 -29 260 -176 283 -249 7
-21 34 -81 61 -134 57 -115 71 -181 95 -459 38 -436 10 -1145 -52 -1330 -14
-41 -34 -91 -45 -110 -10 -19 -28 -62 -40 -95 -18 -49 -37 -75 -108 -145 -71
-71 -98 -90 -156 -114 -38 -15 -88 -35 -110 -44 -30 -12 -76 -16 -180 -16
l-140 -1 -117 49 c-136 56 -177 88 -250 194 -89 127 -116 181 -128 257 -6 39
-18 99 -26 135 -63 275 -69 337 -69 740 0 390 5 447 60 685 13 55 26 122 30
148 11 80 33 142 65 183 17 21 45 65 63 98 24 45 49 72 105 115 101 77 146 99
227 110 112 16 358 5 432 -17z"/>
<path d="M46960 7483 c-183 -8 -343 -42 -411 -86 -13 -9 -66 -30 -118 -47 -65
-22 -109 -44 -140 -70 -25 -21 -65 -48 -89 -59 -57 -29 -185 -151 -235 -226
-23 -33 -56 -74 -75 -90 -18 -17 -48 -58 -65 -90 -26 -49 -37 -60 -57 -60 -46
0 -53 49 -41 292 6 127 7 222 2 236 -13 34 -68 77 -99 77 -594 4 -1586 -2
-1600 -9 -9 -5 -27 -20 -40 -34 l-23 -24 1 -2448 c0 -1648 3 -2460 10 -2486
11 -40 28 -62 61 -80 13 -7 276 -10 802 -10 430 0 790 1 799 1 30 0 76 57 83
103 3 23 7 717 9 1542 2 1310 5 1508 18 1565 24 101 79 301 94 345 29 82 201
282 276 321 52 27 223 64 296 64 82 0 246 -36 287 -63 32 -21 145 -148 163
-183 11 -21 34 -163 52 -329 8 -68 12 -605 13 -1680 2 -1305 4 -1586 16 -1613
13 -33 43 -54 94 -66 15 -4 386 -7 823 -7 646 0 798 2 811 13 46 37 44 -22 43
1781 0 936 -5 1765 -10 1842 -8 132 -22 204 -71 385 -11 41 -33 126 -49 187
-16 63 -39 127 -52 145 -13 18 -45 78 -71 133 -27 55 -61 114 -77 130 -15 17
-43 56 -62 87 -38 65 -195 216 -259 249 -23 11 -63 38 -89 58 -26 21 -76 48
-111 60 -64 23 -88 32 -209 78 -36 14 -92 31 -125 39 -58 13 -387 36 -470 32
-22 -1 -69 -3 -105 -5z"/>
<path d="M57704 7480 c-241 -11 -360 -32 -519 -91 -27 -10 -95 -28 -150 -39
-74 -16 -123 -33 -190 -69 -49 -26 -114 -56 -143 -65 -29 -10 -74 -34 -100
-55 -26 -20 -78 -56 -117 -80 -38 -24 -86 -58 -105 -76 -19 -18 -52 -44 -73
-57 -47 -32 -202 -196 -247 -263 -18 -27 -46 -64 -61 -82 -15 -17 -44 -62 -65
-100 -20 -37 -53 -89 -72 -116 -18 -26 -49 -89 -67 -140 -18 -50 -49 -123 -69
-162 -26 -50 -44 -106 -62 -194 -14 -68 -32 -145 -41 -170 -66 -193 -85 -400
-86 -931 -1 -482 12 -607 88 -865 17 -60 38 -146 45 -190 9 -55 29 -113 63
-185 27 -58 57 -131 67 -163 10 -31 40 -90 68 -130 27 -41 55 -91 62 -112 7
-21 27 -54 44 -74 18 -20 54 -65 81 -101 62 -83 291 -309 364 -360 31 -21 72
-52 91 -69 19 -17 55 -37 79 -46 24 -8 78 -37 120 -63 51 -33 110 -60 181 -81
58 -18 123 -43 145 -56 52 -30 134 -51 271 -70 60 -8 156 -23 214 -34 179 -32
345 -44 537 -38 240 8 388 21 508 46 55 11 144 25 199 31 133 14 177 26 273
72 45 21 114 46 154 54 80 16 109 30 189 84 30 21 78 45 107 54 28 10 71 34
95 54 24 21 61 51 83 67 170 125 406 382 481 525 19 36 46 80 59 99 14 18 34
65 46 105 28 92 64 194 100 279 16 37 29 82 29 100 0 40 -33 95 -63 105 -12 4
-374 6 -805 4 l-783 -3 -38 -38 c-22 -22 -62 -83 -90 -138 -86 -168 -128 -204
-331 -287 -102 -42 -201 -56 -320 -45 -67 6 -111 19 -207 58 -146 59 -167 73
-224 148 -24 32 -57 74 -73 92 -35 43 -71 122 -84 187 -6 27 -21 94 -35 149
-38 153 -51 268 -38 343 6 35 16 71 23 80 38 45 -6 44 1537 43 859 -1 1482 3
1520 8 137 21 148 68 130 546 -9 244 -26 389 -62 545 -13 58 -30 141 -37 185
-22 150 -43 229 -76 295 -35 70 -64 150 -64 178 0 22 -66 151 -91 178 -10 11
-26 42 -36 70 -22 66 -187 284 -310 409 -127 130 -217 206 -300 257 -38 22
-82 53 -99 67 -30 27 -41 32 -138 67 -26 10 -78 35 -114 57 -47 29 -93 46
-168 63 -56 13 -142 36 -191 53 -116 39 -205 58 -333 70 -152 15 -566 21 -776
11z m553 -1195 c28 -9 69 -29 90 -45 21 -16 58 -44 83 -61 73 -51 90 -71 122
-132 16 -33 42 -76 57 -98 46 -62 68 -134 92 -294 30 -198 30 -209 -9 -248
l-32 -32 -603 -3 c-331 -2 -626 0 -656 3 -42 5 -61 14 -84 36 -35 36 -34 59
10 229 17 63 39 153 49 199 13 60 28 98 51 130 18 25 42 62 52 82 32 57 68 96
150 157 101 76 94 72 175 88 98 19 381 12 453 -11z"/>
<path d="M63073 7480 c-243 -11 -405 -39 -533 -93 -19 -8 -82 -25 -139 -36
-101 -21 -147 -39 -226 -89 -22 -14 -66 -33 -98 -43 -37 -11 -85 -38 -131 -72
-39 -30 -89 -64 -111 -75 -22 -11 -49 -30 -60 -42 -11 -12 -45 -39 -75 -60
-105 -72 -318 -312 -381 -429 -15 -27 -50 -83 -78 -123 -28 -41 -58 -99 -67
-129 -9 -30 -37 -94 -63 -144 -32 -61 -53 -117 -65 -175 -10 -47 -35 -139 -56
-205 -61 -193 -73 -278 -91 -660 -14 -303 1 -783 32 -985 12 -79 51 -227 69
-260 6 -10 21 -70 34 -132 28 -131 50 -194 94 -262 18 -28 32 -55 32 -61 0
-26 54 -143 81 -178 17 -21 40 -60 52 -86 45 -102 323 -408 466 -514 31 -23
76 -58 100 -79 23 -21 67 -46 96 -57 29 -11 79 -38 111 -61 33 -23 88 -50 129
-61 83 -25 183 -63 234 -90 38 -19 117 -36 301 -64 58 -8 130 -20 160 -26 293
-53 668 -53 972 1 62 11 172 29 243 40 134 20 223 45 282 80 19 11 75 32 126
46 104 30 120 37 162 72 17 14 64 40 105 59 41 19 96 53 122 74 27 22 65 50
86 62 91 52 335 305 380 393 11 22 37 60 58 85 20 24 56 85 80 134 23 50 54
106 69 125 14 19 37 73 51 120 15 47 46 132 71 190 38 90 48 131 73 285 16 99
35 212 44 250 38 178 50 326 50 620 1 310 -9 419 -59 670 -13 66 -31 167 -40
225 -20 137 -35 192 -73 266 -18 33 -42 98 -53 145 -15 59 -38 110 -75 172
-29 48 -58 105 -65 125 -7 20 -31 62 -54 92 -23 30 -58 80 -78 110 -43 66
-270 300 -376 388 -41 34 -93 70 -115 81 -23 10 -60 35 -83 53 -23 19 -54 40
-69 45 -112 42 -149 59 -190 88 -34 24 -73 39 -143 55 -53 12 -152 39 -221 60
-158 48 -199 57 -335 69 -157 15 -561 21 -762 11z m560 -1329 c40 -14 82 -40
130 -83 107 -92 134 -126 168 -208 17 -41 42 -97 56 -125 14 -27 34 -83 44
-123 62 -242 72 -1112 18 -1499 -6 -41 -28 -115 -50 -170 -22 -54 -49 -124
-61 -156 -14 -41 -39 -78 -86 -130 -85 -93 -96 -101 -184 -138 -151 -64 -145
-63 -293 -63 l-140 -1 -118 49 c-131 55 -180 91 -236 175 -21 31 -52 77 -69
102 -40 59 -48 79 -72 202 -12 56 -27 125 -35 152 -8 28 -24 109 -37 180 -21
120 -23 159 -23 505 0 409 5 466 64 715 16 66 36 153 45 194 11 49 27 89 49
120 19 25 45 67 60 92 36 63 181 187 245 210 58 20 160 28 312 24 122 -3 167
-8 213 -24z"/>
<path d="M69385 7484 c-199 -10 -293 -31 -425 -93 -36 -17 -71 -31 -78 -31
-28 0 -138 -52 -167 -79 -16 -16 -58 -43 -92 -61 -88 -46 -335 -306 -372 -392
-32 -74 -73 -89 -99 -35 -17 35 -19 108 -9 314 6 138 5 167 -8 193 -33 65 18
61 -864 61 -855 -1 -829 0 -874 -48 -17 -19 -17 -191 -17 -3583 0 -2367 3
-3575 10 -3600 6 -21 17 -43 25 -50 8 -7 15 -28 15 -46 l0 -34 840 0 840 0 0
34 c0 18 7 50 16 71 13 33 15 179 13 1339 -1 715 -2 1319 -2 1342 0 53 22 98
50 102 16 2 29 -10 59 -60 105 -173 386 -439 509 -481 17 -6 55 -27 85 -48 56
-38 87 -48 295 -95 186 -42 279 -54 419 -54 139 0 205 8 361 45 55 14 130 29
168 35 80 12 157 41 202 76 18 14 58 35 89 47 118 46 373 272 494 437 30 41
72 98 92 125 21 28 45 73 54 100 9 28 25 64 37 80 30 44 89 167 89 186 0 24
47 168 63 193 27 42 56 164 72 306 16 144 23 185 48 290 12 52 14 55 45 58
l32 3 0 694 0 694 -32 3 c-26 2 -33 9 -40 33 -17 61 -47 236 -53 312 -11 138
-33 224 -91 353 -9 19 -29 82 -45 138 -16 57 -40 118 -54 136 -13 18 -44 74
-68 126 -25 52 -59 113 -77 135 -18 22 -43 62 -57 88 -38 75 -306 338 -380
373 -32 14 -73 40 -91 55 -42 37 -74 53 -164 83 -40 14 -113 42 -163 62 -54
22 -126 41 -180 49 -93 14 -398 25 -520 19z m-323 -1298 c151 -32 160 -36 239
-112 89 -87 112 -121 150 -229 17 -49 41 -110 54 -135 45 -91 66 -273 80 -725
6 -198 -7 -619 -26 -810 -10 -109 -19 -138 -106 -382 -30 -83 -87 -168 -148
-222 -61 -53 -201 -131 -255 -141 -78 -15 -305 -12 -375 4 -55 13 -122 51
-232 128 -17 13 -46 48 -64 78 -18 30 -48 74 -65 98 -22 29 -38 67 -50 120 -9
42 -29 133 -45 202 -59 258 -64 319 -64 760 0 418 4 475 47 670 10 47 29 141
43 210 25 120 28 128 92 224 69 105 151 194 206 223 18 9 75 27 127 39 130 31
249 31 392 0z"/>
</g>
</svg>
